<svg id="eUWsR2F7ual1" xmlns="http://www.w3.org/2000/svg" xmlns:xlink="http://www.w3.org/1999/xlink" viewBox="0 0 315 254" shape-rendering="geometricPrecision" text-rendering="geometricPrecision"><style><![CDATA[#eUWsR2F7ual3 {animation: eUWsR2F7ual3_c_o 5000ms linear infinite normal forwards}@keyframes eUWsR2F7ual3_c_o { 0% {opacity: 0} 14% {opacity: 0} 22% {opacity: 1} 89.8% {opacity: 1} 97.8% {opacity: 0} 100% {opacity: 0}} #eUWsR2F7ual8_ts {animation: eUWsR2F7ual8_ts__ts 5000ms linear infinite normal forwards}@keyframes eUWsR2F7ual8_ts__ts { 0% {transform: translate(249px,58px) scale(1,0)} 22% {transform: translate(249px,58px) scale(1,0);animation-timing-function: cubic-bezier(0.42,0,0.58,1)} 38% {transform: translate(249px,58px) scale(1,1)} 100% {transform: translate(249px,58px) scale(1,1)}} #eUWsR2F7ual9_ts {animation: eUWsR2F7ual9_ts__ts 5000ms linear infinite normal forwards}@keyframes eUWsR2F7ual9_ts__ts { 0% {transform: translate(259px,196.973567px) scale(1,0)} 22% {transform: translate(259px,196.973567px) scale(1,0);animation-timing-function: cubic-bezier(0.42,0,0.58,1)} 38% {transform: translate(259px,196.973567px) scale(1,1)} 100% {transform: translate(259px,196.973567px) scale(1,1)}} #eUWsR2F7ual10_ts {animation: eUWsR2F7ual10_ts__ts 5000ms linear infinite normal forwards}@keyframes eUWsR2F7ual10_ts__ts { 0% {transform: translate(51.5px,47px) scale(0,1)} 22% {transform: translate(51.5px,47px) scale(0,1);animation-timing-function: cubic-bezier(0.42,0,0.58,1)} 36% {transform: translate(51.5px,47px) scale(1,1)} 100% {transform: translate(51.5px,47px) scale(1,1)}} #eUWsR2F7ual11_ts {animation: eUWsR2F7ual11_ts__ts 5000ms linear infinite normal forwards}@keyframes eUWsR2F7ual11_ts__ts { 0% {transform: translate(259px,200.260116px) scale(0,1)} 22% {transform: translate(259px,200.260116px) scale(0,1);animation-timing-function: cubic-bezier(0.42,0,0.58,1)} 36% {transform: translate(259px,200.260116px) scale(1,1)} 100% {transform: translate(259px,200.260116px) scale(1,1)}} #eUWsR2F7ual12 {animation: eUWsR2F7ual12_c_o 5000ms linear infinite normal forwards}@keyframes eUWsR2F7ual12_c_o { 0% {opacity: 1} 90% {opacity: 1} 98% {opacity: 0} 100% {opacity: 0}} #eUWsR2F7ual13_ts {animation: eUWsR2F7ual13_ts__ts 5000ms linear infinite normal forwards}@keyframes eUWsR2F7ual13_ts__ts { 0% {transform: translate(72.75px,83.965423px) scale(0,1)} 58% {transform: translate(72.75px,83.965423px) scale(0,1);animation-timing-function: cubic-bezier(0.42,0,0.58,1)} 66% {transform: translate(72.75px,83.965423px) scale(1,1)} 100% {transform: translate(72.75px,83.965423px) scale(1,1)}} #eUWsR2F7ual14_ts {animation: eUWsR2F7ual14_ts__ts 5000ms linear infinite normal forwards}@keyframes eUWsR2F7ual14_ts__ts { 0% {transform: translate(72.75px,109.73527px) scale(0,1)} 64% {transform: translate(72.75px,109.73527px) scale(0,1);animation-timing-function: cubic-bezier(0.42,0,0.58,1)} 72% {transform: translate(72.75px,109.73527px) scale(1,1)} 100% {transform: translate(72.75px,109.73527px) scale(1,1)}} #eUWsR2F7ual15 {animation: eUWsR2F7ual15_c_o 5000ms linear infinite normal forwards}@keyframes eUWsR2F7ual15_c_o { 0% {opacity: 1} 90% {opacity: 1} 98% {opacity: 0} 100% {opacity: 0}} #eUWsR2F7ual16_ts {animation: eUWsR2F7ual16_ts__ts 5000ms linear infinite normal forwards}@keyframes eUWsR2F7ual16_ts__ts { 0% {transform: translate(72.75px,83.965423px) scale(0,1)} 40% {transform: translate(72.75px,83.965423px) scale(0,1);animation-timing-function: cubic-bezier(0.42,0,0.58,1)} 48% {transform: translate(72.75px,83.965423px) scale(1,1)} 100% {transform: translate(72.75px,83.965423px) scale(1,1)}} #eUWsR2F7ual17_ts {animation: eUWsR2F7ual17_ts__ts 5000ms linear infinite normal forwards}@keyframes eUWsR2F7ual17_ts__ts { 0% {transform: translate(72.75px,109.73527px) scale(0,1)} 46% {transform: translate(72.75px,109.73527px) scale(0,1);animation-timing-function: cubic-bezier(0.42,0,0.58,1)} 54% {transform: translate(72.75px,109.73527px) scale(1,1)} 100% {transform: translate(72.75px,109.73527px) scale(1,1)}} #eUWsR2F7ual18_ts {animation: eUWsR2F7ual18_ts__ts 5000ms linear infinite normal forwards}@keyframes eUWsR2F7ual18_ts__ts { 0% {transform: translate(72.75px,138.5px) scale(0,1)} 52% {transform: translate(72.75px,138.5px) scale(0,1);animation-timing-function: cubic-bezier(0.42,0,0.58,1)} 60% {transform: translate(72.75px,138.5px) scale(1,1)} 100% {transform: translate(72.75px,138.5px) scale(1,1)}} #eUWsR2F7ual19_ts {animation: eUWsR2F7ual19_ts__ts 5000ms linear infinite normal forwards}@keyframes eUWsR2F7ual19_ts__ts { 0% {transform: translate(72.75px,138.5px) scale(0,1)} 70% {transform: translate(72.75px,138.5px) scale(0,1);animation-timing-function: cubic-bezier(0.42,0,0.58,1)} 78% {transform: translate(72.75px,138.5px) scale(1,1)} 100% {transform: translate(72.75px,138.5px) scale(1,1)}} #eUWsR2F7ual20_ts {animation: eUWsR2F7ual20_ts__ts 5000ms linear infinite normal forwards}@keyframes eUWsR2F7ual20_ts__ts { 0% {transform: translate(42px,201px) scale(1,0)} 22% {transform: translate(42px,201px) scale(1,0);animation-timing-function: cubic-bezier(0.42,0,0.58,1)} 36% {transform: translate(42px,201px) scale(1,1)} 100% {transform: translate(42px,201px) scale(1,1)}}]]></style><rect id="eUWsR2F7ual2" display="none" width="315.000001" height="239.120137" rx="0" ry="0" transform="matrix(0.849704 0 0 0.997677 16.17162 7.71767)" fill="rgb(210,219,237)" stroke="none" stroke-width="0"/><g id="eUWsR2F7ual3" opacity="0"><path id="eUWsR2F7ual4" d="M127.037,47L52.5,47C51.9477,47,51.5,47.4477,51.5,48L51.5,189C51.5,189.552,51.9477,190,52.5,190L127.157,190C127.379,190,127.595,190.074,127.771,190.211L148.386,206.245C149.043,206.756,150,206.288,150,205.455L150,73.8673C150,73.6302,149.916,73.4008,149.762,73.22L127.8,47.3528C127.61,47.129,127.331,47,127.037,47Z" fill="none" stroke="rgb(255,255,255)" stroke-width="5"/><path id="eUWsR2F7ual5" d="M150,219L125.33,201.445L42,201.445L42,58L51.5,58" fill="none" stroke="rgb(255,255,255)" stroke-width="5" stroke-linecap="round" stroke-linejoin="round"/><path id="eUWsR2F7ual6" d="M172.963,47L247.5,47C248.052,47,248.5,47.4477,248.5,48L248.5,189C248.5,189.552,248.052,190,247.5,190L172.843,190C172.621,190,172.405,190.074,172.229,190.211L151.614,206.245C150.957,206.756,150,206.288,150,205.455L150,73.8673C150,73.6302,150.084,73.4008,150.238,73.22L172.2,47.3528C172.39,47.129,172.669,47,172.963,47Z" fill="none" stroke="rgb(255,255,255)" stroke-width="5"/><path id="eUWsR2F7ual7" d="M150,219L174.898,201.445L259,201.445L259,58L250,58" fill="none" stroke="rgb(255,255,255)" stroke-width="5" stroke-linecap="round" stroke-linejoin="round"/></g><g id="eUWsR2F7ual8_ts" transform="translate(249,58) scale(1,0)"><path id="eUWsR2F7ual8" display="none" d="M249,56L249,0" transform="translate(-249,-58)" fill="none" stroke="rgb(255,255,255)" stroke-width="5"/></g><g id="eUWsR2F7ual9_ts" transform="translate(259,196.973567) scale(1,0)"><path id="eUWsR2F7ual9" display="none" d="M259,245L259,189" transform="translate(-259,-196.973567)" fill="none" stroke="rgb(255,255,255)" stroke-width="5"/></g><g id="eUWsR2F7ual10_ts" transform="translate(51.5,47) scale(0,1)"><path id="eUWsR2F7ual10" display="none" d="M-0.000001,47L56,47" transform="translate(-51.5,-47)" fill="none" stroke="rgb(255,255,255)" stroke-width="5"/></g><g id="eUWsR2F7ual11_ts" transform="translate(259,200.260116) scale(0,1)"><path id="eUWsR2F7ual11" display="none" d="M259,201L315,201" transform="translate(-259,-201)" fill="none" stroke="rgb(255,255,255)" stroke-width="5"/></g><g id="eUWsR2F7ual12" transform="matrix(1 0 0 1 98.5 0)"><g id="eUWsR2F7ual13_ts" transform="translate(72.75,83.965423) scale(0,1)"><path id="eUWsR2F7ual13" d="M259,201L315,201" transform="translate(-259,-201)" fill="none" stroke="rgb(255,255,255)" stroke-width="5"/></g><g id="eUWsR2F7ual14_ts" transform="translate(72.75,109.73527) scale(0,1)"><path id="eUWsR2F7ual14" d="M259,201L315,201" transform="translate(-259,-201)" fill="none" stroke="rgb(255,255,255)" stroke-width="5"/></g><g id="eUWsR2F7ual15" transform="matrix(1 0 0 1 -98.5 0)"><g id="eUWsR2F7ual16_ts" transform="translate(72.75,83.965423) scale(0,1)"><path id="eUWsR2F7ual16" d="M259,201L315,201" transform="translate(-259,-201)" fill="none" stroke="rgb(255,255,255)" stroke-width="5"/></g><g id="eUWsR2F7ual17_ts" transform="translate(72.75,109.73527) scale(0,1)"><path id="eUWsR2F7ual17" d="M259,201L315,201" transform="translate(-259,-201)" fill="none" stroke="rgb(255,255,255)" stroke-width="5"/></g><g id="eUWsR2F7ual18_ts" transform="translate(72.75,138.5) scale(0,1)"><path id="eUWsR2F7ual18" d="M259,201L315,201" transform="translate(-259,-201)" fill="none" stroke="rgb(255,255,255)" stroke-width="5"/></g></g><g id="eUWsR2F7ual19_ts" transform="translate(72.75,138.5) scale(0,1)"><path id="eUWsR2F7ual19" d="M259,201L315,201" transform="translate(-259,-201)" fill="none" stroke="rgb(255,255,255)" stroke-width="5"/></g></g><g id="eUWsR2F7ual20_ts" transform="translate(42,201) scale(1,0)"><path id="eUWsR2F7ual20" display="none" d="M42,254L42,184" transform="translate(-42,-183)" fill="none" stroke="rgb(255,255,255)" stroke-width="5"/></g></svg>